<svg width="604" height="617" viewBox="0 0 604 617" fill="none" xmlns="http://www.w3.org/2000/svg">
<path fill-rule="evenodd" clip-rule="evenodd" d="M206.631 0.65016C203.993 3.28816 209.728 13.9962 217.579 21.0902C234.942 36.7792 258.753 46.0692 299.282 52.9652C351.485 61.8482 376.003 71.6672 399.255 93.0042C407.504 100.573 407.283 101.803 398.76 95.7592C364.068 71.1542 341.67 65.0932 273.964 61.9882C235.387 60.2182 214.901 55.9942 193.964 45.4932C171.562 34.2572 175.221 48.7662 198.701 64.2812C219.258 77.8642 239.227 83.7792 285.464 89.9802C337.562 96.9672 372.774 109.429 386.017 125.566C387.759 127.689 388.309 127.822 371.964 122.167C351.555 115.106 337.796 114.532 320.964 120.037C307.19 124.543 284.322 136.981 281.282 141.621L279.669 144.083L282.921 147.439C300.278 165.346 342.607 170.009 368.464 156.862C372.864 154.625 377.536 152.375 378.847 151.863L381.23 150.931L380.686 155.707C379.62 165.073 381.961 185.239 387.031 210.375C392.52 237.588 393.191 246.621 390.417 255.983C381.572 285.834 330.878 308.084 262.964 311.924C223.405 314.16 217.961 314.899 203.464 319.994C193.124 323.629 184.261 328.31 177.303 333.809L172.451 337.645L169.588 333.251C164.654 325.678 156.223 319.693 137.724 310.633C114.116 299.07 107.563 292.223 103.52 274.892C100.081 260.15 93.5979 271.551 93.5159 292.483C93.4519 309.143 95.9569 314.155 110.464 326.39L113.464 328.92L110.964 328.936C109.589 328.945 105.764 328.3 102.464 327.503C91.4009 324.832 90.8869 327.092 100.395 336.599C111.971 348.176 127.768 351.917 146.795 347.59C157.788 345.089 169.537 345.657 164.988 348.468C156.831 353.509 149.975 380.663 149.962 407.983C149.947 437.834 146.476 442.096 118.995 446.006C109.433 447.367 108.91 447.888 101.456 463.483C94.3359 478.378 86.5419 492.127 77.0809 506.483C73.4559 511.983 70.1709 517.244 69.7809 518.174C68.4329 521.389 49.3029 547.122 42.4709 554.911C36.6529 561.543 35.8609 562.16 34.1369 561.408C24.3019 557.118 15.3929 563.769 6.12687 582.32C-2.04913 598.69 -1.97912 602.983 6.46388 602.983C33.9809 602.983 65.9759 573.151 118.958 498.094L131.233 480.704L140.343 481.295C205.035 485.486 235.451 469.798 273.251 412.743C281.537 400.236 288.468 390.154 288.653 390.338C289.521 391.207 283.415 409.715 278.376 421.483C278.096 422.138 292.573 422.597 320.307 422.814L362.667 423.144L375.447 420.986C399.055 416.999 428.236 405.798 437.714 397.084C441.617 393.495 441.638 393.256 438.464 388.578C437.089 386.552 435.964 384.68 435.964 384.418C435.964 384.155 440.451 387.84 445.935 392.605C451.418 397.37 455.66 401.666 455.36 402.151C455.061 402.636 455.186 402.925 455.64 402.793C456.093 402.661 458.466 403.837 460.912 405.406C473.187 413.277 476.89 413.565 488.398 407.546C499.046 401.976 532.378 379.796 536.692 375.41C538.467 373.605 540.942 371.972 542.192 371.782C543.462 371.588 544.336 370.841 544.173 370.087C543.976 369.173 544.45 368.956 545.643 369.413C546.611 369.785 547.083 369.769 546.692 369.378C545.877 368.563 547.741 365.983 549.145 365.983C549.661 365.983 549.761 366.503 549.369 367.138C548.923 367.859 549.095 368.02 549.826 367.568C550.47 367.17 550.768 366.475 550.489 366.023C549.754 364.834 554.811 361.77 556.147 362.596C556.816 363.01 556.996 362.844 556.591 362.188C556.215 361.58 556.821 360.595 557.936 359.998C559.051 359.401 559.964 359.243 559.964 359.648C559.964 360.052 560.504 359.843 561.164 359.183C565.427 354.92 562.62 366.638 553.308 391.983C543.386 418.99 533.784 434.76 528.16 433.289C513.785 429.526 483.964 457.319 483.964 474.478C483.964 480.996 502.105 479.229 519.464 471.02C554.1 454.643 573.368 425.368 597.554 352.374C615.165 299.225 592.617 295.933 511.836 339.858L497.464 347.673L495.742 342.578C494.795 339.776 494.008 337.461 493.992 337.434C493.977 337.407 495.426 337.553 497.214 337.759C511.396 339.395 519.445 309.551 511.989 282.983C506.271 262.608 495.409 246.01 470.186 219.104C451.098 198.742 435.215 177.749 446.85 188.261C456.588 197.058 470.327 200.932 491.964 200.981C499.939 200.999 505.948 201.344 505.317 201.748C504.686 202.152 509.636 202.496 516.317 202.513C525.736 202.536 531.496 203.179 541.964 205.38C568.165 210.888 583.581 207.183 593.234 193.06L596.362 188.483L592.685 191.684C582.902 200.197 551.855 194.99 545.885 183.835C543.704 179.76 546.423 179.505 553.144 183.155C574.2 194.589 590.516 191.058 591.267 174.905L591.464 170.68L586.368 169.51C572.874 166.409 570.838 158.603 584.154 161.017C587.412 161.608 592.483 161.96 595.423 161.798L600.768 161.505L599.425 158.908C596.281 152.827 590.79 150.016 565.515 141.545C536.074 131.679 529.224 128.13 507.594 111.536C481.885 91.8132 469.193 86.5492 448.68 87.1002L438.842 87.3642L433.153 80.8632C406.07 49.9142 374.638 36.3332 315.464 30.0162C266.204 24.7572 243.114 18.6412 218.883 4.43516C211.708 0.229164 208.151 -0.86984 206.631 0.65016ZM474.413 123.534C468.54 126.433 466.31 133.885 469.481 140.016C472.776 146.388 482.528 148.061 487.781 143.154C497.801 133.794 486.684 117.478 474.413 123.534ZM421.037 468.618C416.548 474.324 420.048 481.983 427.144 481.983C431.07 481.983 434.964 477.999 434.964 473.983C434.964 466.815 425.364 463.117 421.037 468.618ZM389.419 476.438C383.029 482.827 389.851 492.826 398.624 489.93C402.425 488.676 403.964 486.443 403.964 482.184C403.964 474.662 394.81 471.046 389.419 476.438ZM352.964 486.632C325.158 494.053 289.964 510.273 289.964 515.667C289.964 517.913 295.326 517.012 311.964 511.972C319.389 509.723 334.239 505.65 344.964 502.921C366.323 497.485 369.291 496.051 369.793 490.928C370.378 484.95 364.7 483.501 352.964 486.632Z" fill="#F4851A"/>
<path fill-rule="evenodd" clip-rule="evenodd" d="M206.631 0.65016C203.993 3.28816 209.728 13.9962 217.579 21.0902C234.942 36.7792 258.753 46.0692 299.282 52.9652C351.485 61.8482 376.003 71.6672 399.255 93.0042C407.504 100.573 407.283 101.803 398.76 95.7592C364.068 71.1542 341.67 65.0932 273.964 61.9882C235.387 60.2182 214.901 55.9942 193.964 45.4932C171.562 34.2572 175.221 48.7662 198.701 64.2812C219.258 77.8642 239.227 83.7792 285.464 89.9802C337.562 96.9672 372.774 109.429 386.017 125.566C387.759 127.689 388.309 127.822 371.964 122.167C351.555 115.106 337.796 114.532 320.964 120.037C307.19 124.543 284.322 136.981 281.282 141.621L279.669 144.083L282.921 147.439C300.278 165.346 342.607 170.009 368.464 156.862C372.864 154.625 377.536 152.375 378.847 151.863L381.23 150.931L380.686 155.707C379.62 165.073 381.961 185.239 387.031 210.375C392.52 237.588 393.191 246.621 390.417 255.983C381.572 285.834 330.878 308.084 262.964 311.924C223.405 314.16 217.961 314.899 203.464 319.994C193.124 323.629 184.261 328.31 177.303 333.809L172.451 337.645L169.588 333.251C164.654 325.678 156.223 319.693 137.724 310.633C114.116 299.07 107.563 292.223 103.52 274.892C100.081 260.15 93.5979 271.551 93.5159 292.483C93.4519 309.143 95.9569 314.155 110.464 326.39L113.464 328.92L110.964 328.936C109.589 328.945 105.764 328.3 102.464 327.503C91.4009 324.832 90.8869 327.092 100.395 336.599C111.971 348.176 127.768 351.917 146.795 347.59C157.788 345.089 169.537 345.657 164.988 348.468C156.831 353.509 149.975 380.663 149.962 407.983C149.947 437.834 146.476 442.096 118.995 446.006C109.433 447.367 108.91 447.888 101.456 463.483C94.3359 478.378 86.5419 492.127 77.0809 506.483C73.4559 511.983 70.1709 517.244 69.7809 518.174C68.4329 521.389 49.3029 547.122 42.4709 554.911C36.6529 561.543 35.8609 562.16 34.1369 561.408C24.3019 557.118 15.3929 563.769 6.12687 582.32C-2.04913 598.69 -1.97912 602.983 6.46388 602.983C33.9809 602.983 65.9759 573.151 118.958 498.094L131.233 480.704L140.343 481.295C205.035 485.486 235.451 469.798 273.251 412.743C281.537 400.236 288.468 390.154 288.653 390.338C289.521 391.207 283.415 409.715 278.376 421.483C278.096 422.138 292.573 422.597 320.307 422.814L362.667 423.144L375.447 420.986C399.055 416.999 428.236 405.798 437.714 397.084C441.617 393.495 441.638 393.256 438.464 388.578C437.089 386.552 435.964 384.68 435.964 384.418C435.964 384.155 440.451 387.84 445.935 392.605C451.418 397.37 455.66 401.666 455.36 402.151C455.061 402.636 455.186 402.925 455.64 402.793C456.093 402.661 458.466 403.837 460.912 405.406C473.187 413.277 476.89 413.565 488.398 407.546C499.046 401.976 532.378 379.796 536.692 375.41C538.467 373.605 540.942 371.972 542.192 371.782C543.462 371.588 544.336 370.841 544.173 370.087C543.976 369.173 544.45 368.956 545.643 369.413C546.611 369.785 547.083 369.769 546.692 369.378C545.877 368.563 547.741 365.983 549.145 365.983C549.661 365.983 549.761 366.503 549.369 367.138C548.923 367.859 549.095 368.02 549.826 367.568C550.47 367.17 550.768 366.475 550.489 366.023C549.754 364.834 554.811 361.77 556.147 362.596C556.816 363.01 556.996 362.844 556.591 362.188C556.215 361.58 556.821 360.595 557.936 359.998C559.051 359.401 559.964 359.243 559.964 359.648C559.964 360.052 560.504 359.843 561.164 359.183C565.427 354.92 562.62 366.638 553.308 391.983C543.386 418.99 533.784 434.76 528.16 433.289C513.785 429.526 483.964 457.319 483.964 474.478C483.964 480.996 502.105 479.229 519.464 471.02C554.1 454.643 573.368 425.368 597.554 352.374C615.165 299.225 592.617 295.933 511.836 339.858L497.464 347.673L495.742 342.578C494.795 339.776 494.008 337.461 493.992 337.434C493.977 337.407 495.426 337.553 497.214 337.759C511.396 339.395 519.445 309.551 511.989 282.983C506.271 262.608 495.409 246.01 470.186 219.104C451.098 198.742 435.215 177.749 446.85 188.261C456.588 197.058 470.327 200.932 491.964 200.981C499.939 200.999 505.948 201.344 505.317 201.748C504.686 202.152 509.636 202.496 516.317 202.513C525.736 202.536 531.496 203.179 541.964 205.38C568.165 210.888 583.581 207.183 593.234 193.06L596.362 188.483L592.685 191.684C582.902 200.197 551.855 194.99 545.885 183.835C543.704 179.76 546.423 179.505 553.144 183.155C574.2 194.589 590.516 191.058 591.267 174.905L591.464 170.68L586.368 169.51C572.874 166.409 570.838 158.603 584.154 161.017C587.412 161.608 592.483 161.96 595.423 161.798L600.768 161.505L599.425 158.908C596.281 152.827 590.79 150.016 565.515 141.545C536.074 131.679 529.224 128.13 507.594 111.536C481.885 91.8132 469.193 86.5492 448.68 87.1002L438.842 87.3642L433.153 80.8632C406.07 49.9142 374.638 36.3332 315.464 30.0162C266.204 24.7572 243.114 18.6412 218.883 4.43516C211.708 0.229164 208.151 -0.86984 206.631 0.65016ZM474.413 123.534C468.54 126.433 466.31 133.885 469.481 140.016C472.776 146.388 482.528 148.061 487.781 143.154C497.801 133.794 486.684 117.478 474.413 123.534ZM421.037 468.618C416.548 474.324 420.048 481.983 427.144 481.983C431.07 481.983 434.964 477.999 434.964 473.983C434.964 466.815 425.364 463.117 421.037 468.618ZM389.419 476.438C383.029 482.827 389.851 492.826 398.624 489.93C402.425 488.676 403.964 486.443 403.964 482.184C403.964 474.662 394.81 471.046 389.419 476.438ZM352.964 486.632C325.158 494.053 289.964 510.273 289.964 515.667C289.964 517.913 295.326 517.012 311.964 511.972C319.389 509.723 334.239 505.65 344.964 502.921C366.323 497.485 369.291 496.051 369.793 490.928C370.378 484.95 364.7 483.501 352.964 486.632Z" fill="#F4851A"/>
<path fill-rule="evenodd" clip-rule="evenodd" d="M474.413 123.534C468.54 126.433 466.31 133.885 469.481 140.016C472.776 146.388 482.528 148.061 487.781 143.154C497.801 133.794 486.684 117.478 474.413 123.534ZM576.214 160.608C572.246 162.327 578.334 167.664 586.368 169.51L591.464 170.68L591.267 174.905C590.516 191.058 574.2 194.589 553.144 183.155C543.936 178.154 541.881 182.005 550.323 188.443C557.379 193.825 575.268 197.462 585.367 195.567C594.301 193.891 600.302 183.746 600.403 170.15L600.464 161.816L591.964 161.52C587.289 161.357 582.114 160.963 580.464 160.645C578.814 160.327 576.902 160.31 576.214 160.608ZM442.964 185.373C442.964 187.903 455.507 203.445 470.186 219.104C495.409 246.01 506.271 262.608 511.989 282.983C519.45 309.569 511.396 339.395 497.197 337.757C495.166 337.523 494.104 337.778 494.39 338.432C494.643 339.01 495.368 341.349 496 343.63L497.149 347.776L505.214 343.468C516.158 337.62 516.484 337.261 519.487 327.79C528.429 299.58 522.533 275.463 493.034 219.596C487.766 209.619 487.786 209.562 497.964 205.16L506.464 201.483L488.964 200.894C466.706 200.145 455.909 196.802 446.214 187.656C444.426 185.97 442.964 184.943 442.964 185.373ZM551.72 364.197C547.506 367.064 544.246 369.598 544.475 369.828C544.924 370.276 558.824 361.018 559.61 359.747C560.466 358.363 559.462 358.928 551.72 364.197ZM435.964 384.418C435.964 384.68 437.089 386.552 438.464 388.578C441.638 393.256 441.617 393.495 437.714 397.084C428.236 405.798 399.055 416.999 375.447 420.986L362.667 423.144L320.307 422.814C292.573 422.597 278.096 422.138 278.376 421.483C283.415 409.715 289.521 391.207 288.653 390.338C288.468 390.154 281.537 400.236 273.251 412.743C238.943 464.527 217.425 478.468 168.386 480.685L155.124 481.284L151.408 490.384C134.893 530.82 105.417 573.983 94.3179 573.983C84.2429 573.983 62.9519 609.4 69.2449 615.693C72.7049 619.153 90.3629 611.864 104.708 601.055C126.71 584.476 147.07 556.18 175.196 503.09C176.285 501.034 178.074 500.374 187.895 498.401C225.971 490.755 247.753 477.421 277.426 443.592C288.498 430.97 295.248 429.539 327.82 432.911C373.106 437.599 417.195 428.083 448.706 406.82C457.45 400.919 457.843 402.953 445.964 392.631C440.464 387.851 435.964 384.155 435.964 384.418Z" fill="#15618A"/>
</svg>
