<svg xmlns="http://www.w3.org/2000/svg" width="1024" height="1024" viewBox="0 0 1024 1024" version="1.1"><path d="M 366.667 116.667 C 364.029 119.305, 369.764 130.013, 377.615 137.107 C 394.978 152.796, 418.789 162.086, 459.318 168.982 C 511.521 177.865, 536.039 187.684, 559.291 209.021 C 567.540 216.590, 567.319 217.820, 558.796 211.776 C 524.104 187.171, 501.706 181.110, 434 178.005 C 395.423 176.235, 374.937 172.011, 354 161.510 C 331.598 150.274, 335.257 164.783, 358.737 180.298 C 379.294 193.881, 399.263 199.796, 445.500 205.997 C 497.598 212.984, 532.810 225.446, 546.053 241.583 C 547.795 243.706, 548.345 243.839, 532 238.184 C 511.591 231.123, 497.832 230.549, 481 236.054 C 467.226 240.560, 444.358 252.998, 441.318 257.638 L 439.705 260.100 442.957 263.456 C 460.314 281.363, 502.643 286.026, 528.500 272.879 C 532.900 270.642, 537.572 268.392, 538.883 267.880 L 541.266 266.948 540.722 271.724 C 539.656 281.090, 541.997 301.256, 547.067 326.392 C 552.556 353.605, 553.227 362.638, 550.453 372 C 541.608 401.851, 490.914 424.101, 423 427.941 C 383.441 430.177, 377.997 430.916, 363.500 436.011 C 353.160 439.646, 344.297 444.327, 337.339 449.826 L 332.487 453.662 329.624 449.268 C 324.690 441.695, 316.259 435.710, 297.760 426.650 C 274.152 415.087, 267.599 408.240, 263.556 390.909 C 260.117 376.167, 253.634 387.568, 253.552 408.500 C 253.488 425.160, 255.993 430.172, 270.500 442.407 L 273.500 444.937 271 444.953 C 269.625 444.962, 265.800 444.317, 262.500 443.520 C 251.437 440.849, 250.923 443.109, 260.431 452.616 C 272.007 464.193, 287.804 467.934, 306.831 463.607 C 317.824 461.106, 329.573 461.674, 325.024 464.485 C 316.867 469.526, 310.011 496.680, 309.998 524 C 309.983 553.851, 306.512 558.113, 279.031 562.023 C 269.469 563.384, 268.946 563.905, 261.492 579.500 C 254.372 594.395, 246.578 608.144, 237.117 622.500 C 233.492 628, 230.207 633.261, 229.817 634.191 C 228.469 637.406, 209.339 663.139, 202.507 670.928 C 196.689 677.560, 195.897 678.177, 194.173 677.425 C 184.338 673.135, 175.429 679.786, 166.163 698.337 C 157.987 714.707, 158.057 719, 166.500 719 C 194.017 719, 226.012 689.168, 278.994 614.111 L 291.269 596.721 300.379 597.312 C 365.071 601.503, 395.487 585.815, 433.287 528.760 C 441.573 516.253, 448.504 506.171, 448.689 506.355 C 449.557 507.224, 443.451 525.732, 438.412 537.500 C 438.132 538.155, 452.609 538.614, 480.343 538.831 L 522.703 539.161 535.483 537.003 C 559.091 533.016, 588.272 521.815, 597.750 513.101 C 601.653 509.512, 601.674 509.273, 598.500 504.595 C 597.125 502.569, 596 500.697, 596 500.435 C 596 500.172, 600.487 503.857, 605.971 508.622 C 611.454 513.387, 615.696 517.683, 615.396 518.168 C 615.097 518.653, 615.222 518.942, 615.676 518.810 C 616.129 518.678, 618.502 519.854, 620.948 521.423 C 633.223 529.294, 636.926 529.582, 648.434 523.563 C 659.082 517.993, 692.414 495.813, 696.728 491.427 C 698.503 489.622, 700.978 487.989, 702.228 487.799 C 703.498 487.605, 704.372 486.858, 704.209 486.104 C 704.012 485.190, 704.486 484.973, 705.679 485.430 C 706.647 485.802, 707.119 485.786, 706.728 485.395 C 705.913 484.580, 707.777 482, 709.181 482 C 709.697 482, 709.797 482.520, 709.405 483.155 C 708.959 483.876, 709.131 484.037, 709.862 483.585 C 710.506 483.187, 710.804 482.492, 710.525 482.040 C 709.790 480.851, 714.847 477.787, 716.183 478.613 C 716.852 479.027, 717.032 478.861, 716.627 478.205 C 716.251 477.597, 716.857 476.612, 717.972 476.015 C 719.087 475.418, 720 475.260, 720 475.665 C 720 476.069, 720.540 475.860, 721.200 475.200 C 725.463 470.937, 722.656 482.655, 713.344 508 C 703.422 535.007, 693.820 550.777, 688.196 549.306 C 673.821 545.543, 644 573.336, 644 590.495 C 644 597.013, 662.141 595.246, 679.500 587.037 C 714.136 570.660, 733.404 541.385, 757.590 468.391 C 775.201 415.242, 752.653 411.950, 671.872 455.875 L 657.500 463.690 655.778 458.595 C 654.831 455.793, 654.044 453.478, 654.028 453.451 C 654.013 453.424, 655.462 453.570, 657.250 453.776 C 671.432 455.412, 679.481 425.568, 672.025 399 C 666.307 378.625, 655.445 362.027, 630.222 335.121 C 611.134 314.759, 595.251 293.766, 606.886 304.278 C 616.624 313.075, 630.363 316.949, 652 316.998 C 659.975 317.016, 665.984 317.361, 665.353 317.765 C 664.722 318.169, 669.672 318.513, 676.353 318.530 C 685.772 318.553, 691.532 319.196, 702 321.397 C 728.201 326.905, 743.617 323.200, 753.270 309.077 L 756.398 304.500 752.721 307.701 C 742.938 316.214, 711.891 311.007, 705.921 299.852 C 703.740 295.777, 706.459 295.522, 713.180 299.172 C 734.236 310.606, 750.552 307.075, 751.303 290.922 L 751.500 286.697 746.404 285.527 C 732.910 282.426, 730.874 274.620, 744.190 277.034 C 747.448 277.625, 752.519 277.977, 755.459 277.815 L 760.804 277.522 759.461 274.925 C 756.317 268.844, 750.826 266.033, 725.551 257.562 C 696.110 247.696, 689.260 244.147, 667.630 227.553 C 641.921 207.830, 629.229 202.566, 608.716 203.117 L 598.878 203.381 593.189 196.880 C 566.106 165.931, 534.674 152.350, 475.500 146.033 C 426.240 140.774, 403.150 134.658, 378.919 120.452 C 371.744 116.246, 368.187 115.147, 366.667 116.667 M 634.449 239.551 C 628.576 242.450, 626.346 249.902, 629.517 256.033 C 632.812 262.405, 642.564 264.078, 647.817 259.171 C 657.837 249.811, 646.720 233.495, 634.449 239.551 M 581.073 584.635 C 576.584 590.341, 580.084 598, 587.180 598 C 591.106 598, 595 594.016, 595 590 C 595 582.832, 585.400 579.134, 581.073 584.635 M 549.455 592.455 C 543.065 598.844, 549.887 608.843, 558.660 605.947 C 562.461 604.693, 564 602.460, 564 598.201 C 564 590.679, 554.846 587.063, 549.455 592.455 M 513 602.649 C 485.194 610.070, 450 626.290, 450 631.684 C 450 633.930, 455.362 633.029, 472 627.989 C 479.425 625.740, 494.275 621.667, 505 618.938 C 526.359 613.502, 529.327 612.068, 529.829 606.945 C 530.414 600.967, 524.736 599.518, 513 602.649" stroke="none" fill="#f4851a" fill-rule="evenodd"/><path d="M 235.054 158.076 C 198.458 162.543, 172.904 185.947, 164.732 222.482 L 162.714 231.500 162.087 302 L 161.459 372.500 159.162 378.238 C 153.221 393.081, 144.261 400.837, 128.281 404.969 C 122.676 406.419, 121.636 409.815, 122.154 424.961 L 122.539 436.208 124.880 438.104 C 126.168 439.147, 128.236 440, 129.476 440 C 136.966 440, 151.405 451.023, 156.201 460.403 C 161.615 470.990, 161.367 467.697, 162.071 538.500 L 162.726 604.500 164.747 613.565 C 169.625 635.444, 181.107 653.063, 197.862 664.379 C 205.530 669.557, 203.478 671.192, 222.750 644.556 C 231.304 632.734, 231.045 633.953, 225.750 630.470 C 218.727 625.850, 213.640 619.223, 210.366 610.429 C 208.681 605.903, 208.483 600.261, 207.949 541.500 L 207.366 477.500 205.184 469.500 C 199.908 450.160, 187.537 434.135, 172.306 426.912 C 165.562 423.713, 163.429 422, 166.190 422 C 173.531 422, 193.159 403.569, 199.450 390.768 C 207.353 374.684, 207.198 376.386, 207.897 298.500 L 208.516 229.500 210.674 224.219 C 218.037 206.195, 229.216 198.391, 249.294 197.257 L 259.087 196.704 261.129 194.109 L 263.170 191.514 262.835 176.291 C 262.389 156.043, 260.713 154.944, 235.054 158.076 M 766.323 157.696 C 762.050 158.528, 761.515 160.486, 761.218 176.401 C 761.012 187.376, 761.293 192.183, 762.244 194 L 763.554 196.500 774.584 197.192 C 796.536 198.569, 807.777 206.800, 814.318 226.286 L 816.403 232.500 817.014 302 C 817.557 363.818, 817.816 372.163, 819.359 377.500 C 824.873 396.569, 837.618 412.561, 853.007 419.721 C 859.578 422.779, 860.142 423.496, 856.661 424.370 C 843.717 427.619, 827.021 446.068, 820.797 464 L 817.500 473.500 816.968 538.500 L 816.436 603.500 814.190 610.210 C 808.122 628.340, 793.064 637.890, 770.405 637.980 C 761.984 638.013, 761.500 639.100, 761.500 657.997 C 761.500 680.583, 767.136 682.814, 801.500 673.825 C 851.103 660.852, 862 635.555, 862 533.376 C 862 473.854, 862.156 471.716, 867.257 461.214 C 872.369 450.689, 886.255 440, 894.815 440 C 895.772 440, 897.555 439.299, 898.777 438.443 L 901 436.887 901 422.566 C 901 406.121, 901.341 406.800, 891.734 404.136 C 863.395 396.278, 861.006 388.469, 860.983 303.614 C 860.959 217.316, 859.543 208.290, 842.720 187.148 C 826.352 166.579, 790.901 152.912, 766.323 157.696 M 634.449 239.551 C 628.576 242.450, 626.346 249.902, 629.517 256.033 C 632.812 262.405, 642.564 264.078, 647.817 259.171 C 657.837 249.811, 646.720 233.495, 634.449 239.551 M 736.250 276.625 C 732.282 278.344, 738.370 283.681, 746.404 285.527 L 751.500 286.697 751.303 290.922 C 750.552 307.075, 734.236 310.606, 713.180 299.172 C 703.972 294.171, 701.917 298.022, 710.359 304.460 C 717.415 309.842, 735.304 313.479, 745.403 311.584 C 754.337 309.908, 760.338 299.763, 760.439 286.167 L 760.500 277.833 752 277.537 C 747.325 277.374, 742.150 276.980, 740.500 276.662 C 738.850 276.344, 736.938 276.327, 736.250 276.625 M 603 301.390 C 603 303.920, 615.543 319.462, 630.222 335.121 C 655.445 362.027, 666.307 378.625, 672.025 399 C 679.486 425.586, 671.432 455.412, 657.233 453.774 C 655.202 453.540, 654.140 453.795, 654.426 454.449 C 654.679 455.027, 655.404 457.366, 656.036 459.647 L 657.185 463.793 665.250 459.485 C 676.194 453.637, 676.520 453.278, 679.523 443.807 C 688.465 415.597, 682.569 391.480, 653.070 335.613 C 647.802 325.636, 647.822 325.579, 658 321.177 L 666.500 317.500 649 316.911 C 626.742 316.162, 615.945 312.819, 606.250 303.673 C 604.462 301.987, 603 300.960, 603 301.390 M 711.756 480.214 C 707.542 483.081, 704.282 485.615, 704.511 485.845 C 704.960 486.293, 718.860 477.035, 719.646 475.764 C 720.502 474.380, 719.498 474.945, 711.756 480.214 M 596 500.435 C 596 500.697, 597.125 502.569, 598.500 504.595 C 601.674 509.273, 601.653 509.512, 597.750 513.101 C 588.272 521.815, 559.091 533.016, 535.483 537.003 L 522.703 539.161 480.343 538.831 C 452.609 538.614, 438.132 538.155, 438.412 537.500 C 443.451 525.732, 449.557 507.224, 448.689 506.355 C 448.504 506.171, 441.573 516.253, 433.287 528.760 C 398.979 580.544, 377.461 594.485, 328.422 596.702 L 315.160 597.301 311.444 606.401 C 294.929 646.837, 265.453 690, 254.354 690 C 244.279 690, 222.988 725.417, 229.281 731.710 C 232.741 735.170, 250.399 727.881, 264.744 717.072 C 286.746 700.493, 307.106 672.197, 335.232 619.107 C 336.321 617.051, 338.110 616.391, 347.931 614.418 C 386.007 606.772, 407.789 593.438, 437.462 559.609 C 448.534 546.987, 455.284 545.556, 487.856 548.928 C 533.142 553.616, 577.231 544.100, 608.742 522.837 C 617.486 516.936, 617.879 518.970, 606 508.648 C 600.500 503.868, 596 500.172, 596 500.435 M 376.500 746.925 C 347.648 750.555, 330.689 774.341, 341.125 796.541 C 346.849 808.719, 354.282 812.521, 387.015 820.018 C 404.032 823.915, 410.754 829.062, 409.666 837.362 C 407.324 855.244, 366.853 853.832, 363.478 835.750 L 362.777 832 349.567 832 L 336.358 832 337.157 838.639 C 342.980 887.012, 436 882.635, 436 833.987 C 436 813.236, 424.370 803.649, 391.019 796.909 C 368.660 792.390, 362.836 788.561, 364.329 779.359 C 366.916 763.415, 398.879 764.327, 404.440 780.503 L 405.722 784.232 418.082 784.061 C 432.642 783.860, 431.569 784.460, 430.137 777.327 C 425.759 755.529, 404.389 743.417, 376.500 746.925 M 506.500 746.914 C 439.370 755.270, 432.317 852.181, 497.537 870.074 C 533.473 879.933, 570.395 860.146, 579.025 826.404 C 590.962 779.731, 555.460 740.820, 506.500 746.914 M 289.789 792.750 L 289.500 837.500 287.442 841.500 C 279.711 856.528, 257.111 850.398, 257.022 833.250 L 257 829 243.355 829 L 229.710 829 230.276 835.751 C 234.025 880.475, 302.254 886.607, 313.709 843.250 C 315.183 837.671, 315.480 820.034, 315.088 761.250 L 315 748 302.539 748 L 290.078 748 289.789 792.750 M 602 808.475 L 602 869 614.750 869 L 627.500 869.001 627.248 826.250 L 626.997 783.500 628.878 786.500 C 629.912 788.150, 641.427 807.388, 654.466 829.250 L 678.173 869 694.337 869 L 710.500 869 710.235 808.500 L 709.969 748 697.485 748 L 685 748 685 792.699 L 685 837.398 678.686 826.449 C 675.213 820.427, 665.688 804.025, 657.520 790 C 649.352 775.975, 640.583 760.900, 638.033 756.500 L 633.396 748.500 617.698 748.225 L 602 747.949 602 808.475 M 736 808.470 L 736 869 777 869 L 818 869 818 857.500 L 818 846 789.633 846 L 761.266 846 761.242 797.250 L 761.219 748.500 748.610 748.220 L 736 747.940 736 808.470 M 508.355 769.039 C 486.052 773.454, 473.255 798.430, 480.510 823.386 C 490.805 858.800, 543.870 858.215, 553.516 822.580 C 561.978 791.319, 538.202 763.132, 508.355 769.039" stroke="none" fill="#15618a" fill-rule="evenodd"/></svg>